<svg xmlns="http://www.w3.org/2000/svg" viewBox="0 0 706 674" fill="currentColor">
  <g transform="translate(0,674) scale(0.1,-0.1)">
    <!-- Cross -->
    <path d="M3497 6303 c-4 -3 -7 -638 -7 -1410 l0 -1403 -1430 0 -1430 0 0 -25
0 -25 1430 0 1430 0 0 -1410 0 -1410 25 0 25 0 0 1410 0 1410 1430 0 1430 0 0
25 0 25 -1430 0 -1430 0 0 1410 c0 1361 -1 1410 -18 1410 -10 0 -22 -3 -25 -7z"/>
    <!-- Top-left A -->
    <path d="M1555 5283 c-197 -445 -378 -848 -403 -898 -131 -264 -277 -403 -463
-438 -58 -11 -59 -12 -59 -44 l0 -33 440 0 440 0 0 34 c0 32 -1 33 -50 39
-101 12 -190 70 -232 152 -26 50 -35 166 -19 232 14 52 530 1223 540 1223 10
0 604 -1312 618 -1365 28 -108 7 -176 -67 -219 -29 -18 -56 -22 -167 -24
l-133 -4 0 -34 0 -34 641 0 640 0 -3 33 -3 32 -85 6 c-103 7 -162 34 -235 107
-87 88 -52 16 -660 1345 l-320 697 -31 0 -31 0 -358 -807z"/>
    <!-- Top-right C -->
    <path d="M4785 6080 c-246 -38 -467 -159 -657 -359 -139 -145 -229 -300 -284
-486 -38 -128 -45 -348 -15 -482 86 -389 395 -720 802 -858 240 -82 548 -88
784 -15 247 76 484 279 605 517 24 49 90 223 90 240 0 2 -15 3 -33 3 -32 0
-34 -3 -51 -57 -104 -332 -368 -582 -703 -665 -127 -32 -336 -31 -448 0 -277
79 -418 256 -481 607 -27 145 -27 679 -1 843 61 386 200 591 439 647 201 47
443 -7 643 -146 220 -152 448 -487 521 -767 26 -99 28 -102 56 -102 22 0 28 4
28 23 0 12 -9 222 -20 467 -11 245 -20 471 -20 503 l0 57 -32 0 c-29 0 -42
-10 -99 -78 -36 -43 -88 -93 -115 -111 -43 -29 -55 -32 -101 -29 -44 4 -68 15
-160 76 -122 80 -227 132 -323 157 -77 20 -333 29 -425 15z"/>
    <!-- Top-left A — dot counter -->
    <path d="M1707 4606 c-48 -18 -62 -29 -81 -70 -31 -66 -15 -130 44 -180 25
-21 42 -26 85 -26 59 0 102 27 130 81 57 109 -60 237 -178 195z"/>
    <!-- Bottom-left V -->
    <path d="M630 3026 l0 -33 83 -5 c132 -7 217 -60 303 -189 27 -41 220 -450
478 -1012 l432 -942 34 0 33 0 367 825 c201 454 388 868 415 920 119 229 245
343 428 390 68 17 72 19 72 46 l0 29 -442 3 -443 2 0 -34 c0 -33 1 -33 51 -39
190 -23 295 -173 255 -365 -18 -87 -536 -1260 -547 -1240 -21 38 -590 1295
-603 1330 -42 124 -24 203 57 249 37 21 57 24 170 27 l127 4 0 34 0 34 -635 0
-635 0 0 -34z"/>
    <!-- Bottom-right A -->
    <path d="M5021 3018 c-146 -337 -742 -1670 -768 -1718 -128 -233 -258 -348
-433 -383 -62 -13 -65 -15 -68 -45 l-3 -32 446 0 446 0 -3 33 c-3 31 -5 32
-54 38 -187 23 -291 173 -251 364 10 48 96 254 278 662 145 326 264 591 265
590 18 -21 608 -1342 620 -1386 27 -106 2 -171 -80 -211 -36 -17 -71 -22 -171
-27 l-126 -6 3 -26 3 -26 638 -3 637 -2 0 29 c0 28 0 28 -80 35 -141 13 -248
88 -332 234 -18 31 -224 476 -459 987 l-426 930 -32 3 c-28 3 -33 -1 -50 -40z"/>
    <!-- Bottom-right A — dot counter -->
    <path d="M4803 1560 c-88 -53 -83 -198 9 -246 99 -51 212 16 212 125 0 56 -20
93 -67 121 -42 26 -112 26 -154 0z"/>
  </g>
</svg>
